<svg fill="currentColor" xmlns="http://www.w3.org/2000/svg" viewBox="138.5 -4.45 38.75 38.519999999999996">     <path d="M172.061 27.8967L159.003 1.08775C158.955 0.922286 158.847 0.778774 158.698 0.683598C158.55 0.588423 158.37 0.547978 158.192 0.569696H155.761C155.583 0.547978 155.403 0.588423 155.255 0.683598C155.106 0.778774 154.998 0.922286 154.95 1.08775L143.603 27.8967C143.541 28.0242 143.515 28.1649 143.526 28.3052C143.537 28.4455 143.585 28.5807 143.667 28.6977C143.748 28.8148 143.86 28.9098 143.99 28.9736C144.121 29.0375 144.267 29.068 144.414 29.0623H171.296C171.926 29.0623 172.511 28.3716 172.061 27.8967ZM155.986 12.3553L161.614 23.7523C161.676 23.8878 161.703 24.0353 161.693 24.1827C161.683 24.3301 161.636 24.4731 161.557 24.5998C161.477 24.7264 161.368 24.8331 161.237 24.911C161.106 24.9888 160.958 25.0356 160.804 25.0474H150.447C150.29 25.0373 150.136 24.9934 149.998 24.9189C149.86 24.8444 149.742 24.7412 149.651 24.617C149.56 24.4927 149.5 24.3505 149.474 24.2009C149.448 24.0512 149.458 23.898 149.502 23.7523L154.365 12.3553C154.439 12.2093 154.554 12.0862 154.697 12C154.84 11.9139 155.006 11.8682 155.175 11.8682C155.345 11.8682 155.51 11.9139 155.654 12C155.797 12.0862 155.912 12.2093 155.986 12.3553Z" fill="#FF3300"/> </svg>